<svg version="1.1" xmlns="http://www.w3.org/2000/svg" style="display: block;" viewBox="0 0 2048 2048" width="1024" height="1024" preserveAspectRatio="none">
<path transform="translate(0,0)" fill="#2b6cee" d="M 0 0 L 2048 0 L 2048 2048 L 0 2048 L 0 0 z"/>
<path transform="translate(0,0)" fill="rgb(254,254,254)" d="M 1096.88 599.342 C 1118.79 596.543 1140.8 603.393 1154.51 621.461 C 1187.54 664.984 1168 720.486 1144.69 763.445 C 1127.56 795.009 1107.95 823.544 1088.07 853.212 L 1004.85 975.428 C 955.356 1047.27 905.817 1122.48 851.805 1190.95 C 823.466 1226.87 782.301 1271.01 746.02 1298.55 C 771.077 1301.93 797.951 1307.63 822.518 1312.69 C 924.873 1333.77 1021.22 1331.08 1120.53 1297.56 C 1204.54 1269.2 1299.15 1227.71 1389.2 1247.92 C 1417.65 1254.3 1452.49 1277.52 1439.88 1311.8 C 1427.34 1346.42 1390.57 1372.49 1359.41 1388.8 C 1219.52 1459.27 1041.95 1411.08 900.827 1367.11 C 850.515 1351.43 794.04 1327.78 741.381 1326.8 C 702.979 1325.11 674.8 1346.72 638.563 1355.62 C 621.412 1359.84 579.205 1364.52 573.52 1339.93 C 569.383 1314.54 607.28 1313.75 622.172 1307.29 C 682.651 1281.03 726.108 1222.25 759.549 1168.23 C 816.759 1075.81 855.241 976.213 897.059 876.923 C 934.002 789.208 988.75 616.772 1096.88 599.342 z"/>
</svg>
